#!OML:ASF F:\VICON\USERDATA\INSTALL\rory3\rory3.ASF
:FULLY-SPECIFIED
:DEGREES
36
root 0.37252966019626854 17.794385415609177 5.390613529775871 -1.6140190604396354 1.861829272050095 1.9020282841865916
lfemur 16.61873124921733 -4.392994305596922 -25.479520642329923
ltibia 23.386667051135362
lfoot -6.706029304932145 -5.632311160942793
ltoes -16.244004344100873
rfemur -27.26181200289993 5.4234753128512665 19.324449626108628
rtibia 24.24023873776104
rfoot -3.316524793935976 -6.042955394365084
rtoes 0.2559731611554428
lowerback 9.394511126933438 -1.507504778042656 -3.5210186775238155
upperback 0.24912956346121587 -2.299753379304244 1.8890618471051182
thorax -4.70253096429965 -1.0462218743007057 4.237821661050245
lowerneck -17.002051209220035 -2.6972626672051643 -2.060305562963168
upperneck 21.586718095616607 -3.2796134429204837 0.09692573916530112
head 9.696147283166015 -1.6681503894363523 -0.007428411719426986
lclavicle -1.0982610064308216e-15 1.6943994655047416e-15
lhumerus -23.01490669077733 -3.8465180479271233 82.68729308111641
lradius 32.20986729057891
lwrist 8.100780095207027
lhand -28.692245111672953 24.787436911661427
lfingers 7.12502
lthumb -2.0543973341196855 54.74670991027036
rclavicle -1.0982610064308216e-15 1.6943994655047416e-15
rhumerus -33.012191848243894 -26.74992918102866 -73.78311443421256
rradius 20.12665438095616
rwrist 12.88668365042999
rhand -17.674441344317124 21.408139448964423
rfingers 7.12502
rthumb 8.584412991392629 -8.396288567085277
37
root 0.2575607500935353 17.858189759737492 5.788645569186485 -2.1145051270707156 1.9582756811449102 0.2505087634303327
lfemur 13.655802861893626 -4.179173176660504 -22.93957387841762
ltibia 32.25051554296647
lfoot 0.08770539655260379 -10.116487534993789
ltoes -17.602638489489753
rfemur -25.72492415213598 5.18598703292863 21.878082330344114
rtibia 27.06356839732645
rfoot -3.155899511249366 -4.051149907812585
rtoes 3.8698843260194207
lowerback 9.442707815266054 -1.6329326090513456 -2.279914439603643
upperback 0.21371518033364778 -2.3018422606874807 2.378780315906147
thorax -4.79177258820542 -1.067464508633946 3.9724537669602586
lowerneck -16.914110364915416 -2.6626288213427505 -2.0193871559088064
upperneck 21.72248042826781 -3.2205854450621096 -0.09718197762205127
head 9.719182767818067 -1.6507750955065155 -0.0612077071939679
lclavicle -1.4372701598549764e-15 1.382175841337281e-15
lhumerus -24.613607282179803 -3.2046783010754893 83.12451854490243
lradius 31.531863859648848
lwrist 7.6717490800510255
lhand -28.35661418599176 24.72300125661038
lfingers 7.12502
lthumb -1.7302922921667352 54.68239940863394
rclavicle -1.4372701598549764e-15 1.382175841337281e-15
rhumerus -33.57237865058765 -27.946111686232527 -72.89757368567952
rradius 19.533397543506048
rwrist 13.883302616571022
rhand -17.562981478908103 21.347795865496565
rfingers 7.12502
rthumb 8.691965352634622 -8.45141007689607
38
root 0.16471705842765724 17.961091796747834 7.315980685951842 -2.5773039783541494 2.2178743374875105 -1.2674672066643295
lfemur 9.4351719963068 -3.155336860663641 -19.74812071337424
ltibia 43.73895446261832
lfoot 7.8548495277122745 -14.027235477228311
ltoes -14.602258138393093
rfemur -22.636823958406538 5.44991615724708 24.730619871750083
rtibia 29.152666817572808
rfoot -3.6089970521657717 -3.4853817721269813
rtoes 7.097981574160212
lowerback 9.599564755971373 -1.5906836463356253 -0.7870331766353817
upperback 0.2184829258345356 -2.0571368958910763 2.850760969387763
thorax -4.883767360436917 -0.973066909210941 3.701579685038377
lowerneck -16.739506552097936 -2.667801027686165 -1.9632853016735867
upperneck 21.82834433289585 -3.236222892043285 -0.09641023354498357
head 9.729853914601957 -1.656939989198507 -0.06505950814011821
lclavicle -1.0006252340806841e-15 1.784340064309478e-15
lhumerus -25.976264821261726 -2.8700403039621794 83.75299415738749
lradius 30.908869638676588
lwrist 7.228307546288262
lhand -27.5532210039666 24.87018690078993
lfingers 7.12502
lthumb -0.954429819030834 54.83229213099147
rclavicle -1.0006252340806843e-15 1.7843400643094774e-15
rhumerus -33.5341106708084 -27.6657092915913 -72.78775055572756
rradius 19.532085611833786
rwrist 13.84514553273604
rhand -17.28175482448807 21.781140381765226
rfingers 7.12502
rthumb 8.963353466424008 -8.008875317061642
39
root 0.06627675569449032 18.060415028704057 7.862991744310565 -3.015498777318803 2.0811164811035554 -2.773815651575081
lfemur 3.4152711499194996 -2.03951913731677 -17.270991766856945
ltibia 53.39848062111878
lfoot 12.504047914413295 -16.190135984529984
ltoes -9.834094429124505
rfemur -19.993747425901844 5.674663470877681 26.781118226011166
rtibia 29.242323794000693
rfoot -5.330897326278045 -4.394579918281421
rtoes 8.42869446799742
lowerback 9.754038813061198 -1.482793424162943 0.3239095215183003
upperback 0.24698665189774222 -1.7671598905121422 3.0773157369798305
thorax -4.997753640663227 -0.8517866267353764 3.1505194995963297
lowerneck -16.651278186035956 -2.742070567852685 -1.9735016506424323
upperneck 21.83614547036944 -3.374859038248572 0.05566591924537834
head 9.714730228184463 -1.7043499401910938 -0.04134489012723841
lclavicle -1.6145836234138897e-15 1.218794338886517e-15
lhumerus -27.443765738844156 -3.258942535303147 84.27339087983879
lradius 30.024572999222496
lwrist 6.435955469199217
lhand -26.888631325252756 24.51870428125423
lfingers 7.12502
lthumb -0.31259917791232034 54.485441911951376
rclavicle -1.6145836234138897e-15 1.218794338886517e-15
rhumerus -33.14679347337722 -26.717774269432574 -73.77926004952558
rradius 19.72273892342116
rwrist 12.673080089743841
rhand -17.032745805928627 22.296383201408577
rfingers 7.12502
rthumb 9.203653109089858 -7.481910353203799
